<svg version="1.1" id="Layer_1" xmlns="http://www.w3.org/2000/svg" xmlns:xlink="http://www.w3.org/1999/xlink" x="0px" y="0px"
	 width="100%" viewBox="0 0 496 496" enable-background="new 0 0 496 496" xml:space="preserve">
<path fill="#000000" opacity="1.000000" stroke="none" 
	d="
M231.667419,267.890930 
	C223.394409,264.038330 220.059357,255.753326 223.268463,247.844528 
	C226.140106,240.767426 230.919678,238.690521 240.465683,240.676041 
	C241.629486,236.155212 240.865372,231.541077 241.015488,227.008911 
	C241.121582,223.805969 241.143784,220.992615 245.637909,221.068604 
	C249.789017,221.138809 250.010895,223.687195 250.003174,226.752121 
	C249.973434,238.568024 249.909134,250.384933 250.035553,262.199554 
	C250.076477,266.024139 248.644547,268.185638 244.793671,267.233063 
	C240.369354,266.138641 236.364960,269.135742 231.667419,267.890930 
M240.999756,257.269379 
	C242.030670,255.418152 241.974075,253.421616 241.453735,251.504898 
	C240.463165,247.855942 236.629593,246.198105 233.741165,248.139145 
	C231.524826,249.628540 230.432312,251.920792 230.696518,254.509232 
	C230.954468,257.036346 232.104828,259.316406 234.708984,260.300140 
	C237.326889,261.289062 239.109283,259.877014 240.999756,257.269379 
z"/>
<path fill="#000000" opacity="1.000000" stroke="none" 
	d="
M192.169312,256.558136 
	C189.187378,266.742401 185.073746,269.152100 174.760468,267.163788 
	C174.276352,267.070435 173.781540,266.987213 173.290680,266.980988 
	C164.679245,266.871490 164.678894,266.874237 164.677887,258.359100 
	C164.676590,247.561569 164.718201,236.763748 164.646194,225.966690 
	C164.627411,223.148392 164.847351,221.248444 168.592453,221.355194 
	C171.962540,221.451279 173.458572,222.357773 173.315918,225.899902 
	C173.123169,230.685959 173.268005,235.485596 173.268005,240.805313 
	C178.767960,239.383392 183.887390,238.699829 187.990845,242.826447 
	C191.625854,246.481995 192.698135,251.096970 192.169312,256.558136 
M183.515015,252.033066 
	C180.691391,246.838623 176.983093,245.859970 174.058365,249.585297 
	C172.131714,252.039307 171.750458,254.706940 173.466385,257.446777 
	C174.776352,259.538422 176.562805,261.290131 179.174286,260.340179 
	C182.545288,259.113922 183.778412,256.267670 183.515015,252.033066 
z"/>
<path fill="#000000" opacity="1.000000" stroke="none" 
	d="
M254.015015,256.955688 
	C254.011398,246.465744 254.066925,236.466782 253.951675,226.469757 
	C253.913483,223.157013 254.555344,220.977692 258.542419,221.066864 
	C262.568207,221.156906 262.435699,223.762680 262.406433,226.557709 
	C262.357971,231.191162 262.393250,235.825485 262.393250,240.192978 
	C264.286743,241.249680 265.403839,240.090820 266.657288,239.871399 
	C273.590118,238.657745 278.079376,242.201431 278.294220,249.247253 
	C278.426178,253.576324 278.276947,257.913513 278.377960,262.244171 
	C278.448669,265.273926 277.965515,267.371948 274.111450,267.343384 
	C270.070801,267.313416 270.067871,264.779724 270.042389,261.991089 
	C270.008881,258.326691 270.025970,254.660477 269.908447,250.998672 
	C269.840729,248.890396 269.253571,246.759842 266.743958,246.628784 
	C264.273621,246.499741 263.574768,248.567703 263.010559,250.592758 
	C261.866608,254.698547 262.510559,258.884460 262.407471,263.029510 
	C262.337921,265.825867 261.559723,267.340820 258.408234,267.368439 
	C255.182114,267.396698 253.789261,266.138123 253.963776,262.945557 
	C254.063705,261.117493 253.998459,259.280426 254.015015,256.955688 
z"/>
<path fill="#000000" opacity="1.000000" stroke="none" 
	d="
M308.399902,265.522064 
	C302.035095,267.673767 295.538483,269.168762 289.310364,267.238495 
	C282.325531,265.073730 279.314301,256.284515 281.924866,248.371307 
	C284.214508,241.430862 290.125397,238.461121 297.766052,240.493469 
	C298.914093,240.798828 299.933289,240.894089 301.142700,240.697647 
	C307.801392,239.616089 308.365692,240.133499 308.405273,246.694107 
	C308.442322,252.834335 308.483459,258.974518 308.399902,265.522064 
M296.211884,260.508362 
	C296.941742,260.125183 297.795837,259.876587 298.380676,259.336395 
	C301.498138,256.457031 301.643158,251.290253 298.641724,248.711731 
	C295.959442,246.407379 293.427765,246.968109 291.297058,249.562088 
	C288.537628,252.921463 289.357147,257.437195 293.154816,259.861084 
	C293.817322,260.283936 294.711639,260.343658 296.211884,260.508362 
z"/>
<path fill="#000000" opacity="1.000000" stroke="none" 
	d="
M193.290741,249.807526 
	C196.720047,241.715851 202.725769,238.324036 210.344849,239.857407 
	C216.647629,241.125870 221.013367,246.322250 221.299438,252.896255 
	C221.629440,260.479584 217.773239,266.077271 210.953796,267.914124 
	C200.096313,270.838623 191.852402,262.628357 193.290741,249.807526 
M202.609863,250.157272 
	C201.916504,251.494980 201.291534,252.843979 201.403168,254.418411 
	C201.667847,258.151062 205.558319,261.498016 208.470551,260.303131 
	C210.967300,259.278748 212.316711,257.168213 212.599442,254.496704 
	C212.884842,251.800095 211.974503,249.475800 209.604309,248.091125 
	C207.091583,246.623184 204.810257,247.241547 202.609863,250.157272 
z"/>
<path fill="#000000" opacity="1.000000" stroke="none" 
	d="
M331.300812,240.115891 
	C334.673187,241.310379 336.269440,243.652451 336.804077,246.538223 
	C337.932220,252.627747 337.342377,258.802429 337.159546,264.935150 
	C337.069885,267.942871 334.458099,267.211212 332.582825,267.313904 
	C330.207428,267.443909 328.785461,266.491364 328.799377,263.886475 
	C328.820709,259.895782 328.764954,255.904739 328.752594,251.913818 
	C328.744965,249.447922 328.437714,246.777283 325.415161,246.743378 
	C322.634583,246.712189 321.599945,249.258453 321.457916,251.679245 
	C321.224487,255.658264 321.245270,259.658905 321.323364,263.647186 
	C321.379242,266.501953 320.027405,267.424072 317.352905,267.373993 
	C314.754944,267.325348 312.730316,267.011047 312.777100,263.673462 
	C312.868011,257.189209 312.855652,250.702698 312.808136,244.217697 
	C312.790314,241.784531 313.966217,239.903976 316.241119,240.416183 
	C321.245911,241.543060 326.003998,238.796814 331.300812,240.115891 
z"/>
</svg>